<svg width="19" height="20" viewBox="0 0 19 20" fill="none" xmlns="http://www.w3.org/2000/svg">
<path d="M9.68301 0.3125C4.64945 0.3125 0.571167 4.64844 0.571167 10C0.571167 15.3516 4.64945 19.6875 9.68301 19.6875C14.7166 19.6875 18.7949 15.3516 18.7949 10C18.7949 4.64844 14.7166 0.3125 9.68301 0.3125ZM13.0812 12.5391L12.3464 13.5156C12.2982 13.5797 12.2385 13.6331 12.1709 13.6727C12.1033 13.7123 12.029 13.7373 11.9523 13.7464C11.8755 13.7555 11.7979 13.7484 11.7237 13.7255C11.6496 13.7027 11.5804 13.6646 11.5201 13.6133L9.05841 11.6711C8.8864 11.5247 8.74757 11.339 8.65217 11.1279C8.55678 10.9167 8.50726 10.6854 8.50729 10.4512V4.375C8.50729 4.20924 8.56922 4.05027 8.67947 3.93306C8.78971 3.81585 8.93924 3.75 9.09515 3.75H10.2709C10.4268 3.75 10.5763 3.81585 10.6866 3.93306C10.7968 4.05027 10.8587 4.20924 10.8587 4.375V10L12.9897 11.6602C13.05 11.7115 13.1003 11.7749 13.1375 11.8468C13.1747 11.9188 13.1983 11.9978 13.2068 12.0795C13.2153 12.1611 13.2086 12.2437 13.187 12.3225C13.1655 12.4014 13.1295 12.475 13.0812 12.5391Z" fill="#A6A5B5"/>
</svg>
