<svg width="57" height="69" viewBox="0 0 57 69" fill="none" xmlns="http://www.w3.org/2000/svg">
<path d="M28.9745 34.2857C37.8163 34.2857 44.9823 26.6116 44.9823 17.1429C44.9823 7.67411 37.8163 0 28.9745 0C20.1327 0 12.9668 7.67411 12.9668 17.1429C12.9668 26.6116 20.1327 34.2857 28.9745 34.2857ZM40.9553 38.6518L34.9774 64.2857L30.9755 46.0714L34.9774 38.5714H22.9716L26.9735 46.0714L22.9716 64.2857L16.9937 38.6518C8.07689 39.1071 0.960938 46.9152 0.960938 56.5714V62.1429C0.960938 65.692 3.64974 68.5714 6.96385 68.5714H50.9852C54.2993 68.5714 56.9881 65.692 56.9881 62.1429V56.5714C56.9881 46.9152 49.8722 39.1071 40.9553 38.6518Z" fill="white"/>
</svg>
