<svg width="60" height="42" viewBox="0 0 60 42" fill="none" xmlns="http://www.w3.org/2000/svg">
<path d="M57.2344 28.9969C57.4781 27.675 57.4781 26.325 57.2344 25.0031L59.6531 23.6063C59.9344 23.4469 60.0562 23.1188 59.9625 22.8094C59.3344 20.7844 58.2563 18.9469 56.85 17.4281C56.6344 17.1938 56.2875 17.1375 56.0063 17.2969L53.5875 18.6938C52.5656 17.8219 51.3938 17.1469 50.1281 16.6969V13.9031C50.1281 13.5844 49.9031 13.3031 49.5938 13.2375C47.5031 12.7688 45.375 12.7875 43.3875 13.2375C43.0781 13.3031 42.8531 13.5844 42.8531 13.9031V16.6969C41.5875 17.1469 40.4156 17.8219 39.3938 18.6938L36.975 17.2969C36.7031 17.1375 36.3469 17.1938 36.1312 17.4281C34.725 18.9469 33.6469 20.7844 33.0188 22.8094C32.925 23.1188 33.0563 23.4469 33.3281 23.6063L35.7469 25.0031C35.5031 26.325 35.5031 27.675 35.7469 28.9969L33.3281 30.3938C33.0469 30.5531 32.925 30.8813 33.0188 31.1906C33.6469 33.2156 34.725 35.0438 36.1312 36.5719C36.3469 36.8063 36.6937 36.8625 36.975 36.7031L39.3938 35.3063C40.4156 36.1781 41.5875 36.8531 42.8531 37.3031V40.0969C42.8531 40.4156 43.0781 40.6969 43.3875 40.7625C45.4781 41.2313 47.6063 41.2125 49.5938 40.7625C49.9031 40.6969 50.1281 40.4156 50.1281 40.0969V37.3031C51.3938 36.8531 52.5656 36.1781 53.5875 35.3063L56.0063 36.7031C56.2781 36.8625 56.6344 36.8063 56.85 36.5719C58.2563 35.0531 59.3344 33.2156 59.9625 31.1906C60.0562 30.8813 59.925 30.5531 59.6531 30.3938L57.2344 28.9969ZM46.5 31.5469C43.9875 31.5469 41.9531 29.5031 41.9531 27C41.9531 24.4969 43.9969 22.4531 46.5 22.4531C49.0031 22.4531 51.0469 24.4969 51.0469 27C51.0469 29.5031 49.0125 31.5469 46.5 31.5469ZM9 18C12.3094 18 15 15.3094 15 12C15 8.69065 12.3094 6.00002 9 6.00002C5.69063 6.00002 3 8.69065 3 12C3 15.3094 5.69063 18 9 18ZM30 21C30.1781 21 30.3469 20.9531 30.525 20.9438C31.3031 18.9094 32.4469 16.9969 33.9281 15.3938C34.6219 14.6438 35.6062 14.2125 36.6375 14.2125C37.2844 14.2125 37.9219 14.3813 38.475 14.7094L39.2156 15.1406C39.2906 15.0938 39.3656 15.0563 39.4406 15.0094C40.0969 13.6406 40.4906 12.1219 40.4906 10.5094C40.4906 4.70627 35.7938 0.00939941 29.9906 0.00939941C24.1875 0.00939941 19.5 4.6969 19.5 10.5C19.5 16.3031 24.1969 21 30 21ZM39.8625 39.2344C39.6469 39.1219 39.4312 38.9906 39.225 38.8688C38.4562 39.3188 37.7906 39.7875 36.6469 39.7875C35.625 39.7875 34.6406 39.3563 33.9375 38.6063C32.2219 36.75 30.9094 34.4906 30.1687 32.0813C29.1656 28.8469 32.5031 27.4219 32.5875 27.3656C32.5781 27.1219 32.5781 26.8781 32.5875 26.6344L31.8469 26.2031C31.4906 25.9969 31.1906 25.7344 30.9281 25.4438C30.6187 25.4625 30.3188 25.5 30.0094 25.5C27.7031 25.5 25.5469 24.9375 23.5875 24H22.8094C16.8375 24 12 28.8375 12 34.8V37.5C12 39.9844 14.0156 42 16.5 42H40.4437C40.0969 41.4375 39.8625 40.8 39.8625 40.0969V39.2344ZM16.2281 22.7438C15.1406 21.6656 13.65 21 12 21H6C2.69063 21 0 23.6906 0 27V30C0 31.6594 1.34062 33 3 33H9.17813C9.76875 28.5563 12.45 24.8156 16.2281 22.7438Z" fill="white"/>
</svg>
