<svg width="57" height="46" viewBox="0 0 57 46" fill="none" xmlns="http://www.w3.org/2000/svg">
<path d="M36.9389 30.5H41.1715C41.8769 30.5 42.5823 29.75 42.5823 29V13.25C42.5823 12.5 41.8769 11.75 41.1715 11.75H36.9389C36.2334 11.75 35.528 12.5 35.528 13.25V29C35.528 29.75 36.2334 30.5 36.9389 30.5ZM47.5204 30.5H51.753C52.4584 30.5 53.1638 29.75 53.1638 29V2C53.1638 1.25 52.4584 0.5 51.753 0.5H47.5204C46.8149 0.5 46.1095 1.25 46.1095 2V29C46.1095 29.75 46.8149 30.5 47.5204 30.5ZM15.7759 30.5H20.0085C20.7139 30.5 21.4193 29.75 21.4193 29V20.75C21.4193 20 20.7139 19.25 20.0085 19.25H15.7759C15.0704 19.25 14.365 20 14.365 20.75V29C14.365 29.75 15.0704 30.5 15.7759 30.5ZM26.3574 30.5H30.59C31.2954 30.5 32.0008 29.75 32.0008 29V5.75C32.0008 5 31.2954 4.25 30.59 4.25H26.3574C25.6519 4.25 24.9465 5 24.9465 5.75V29C24.9465 29.75 25.6519 30.5 26.3574 30.5ZM54.9274 38H7.31068V2.375C7.31068 1.33906 6.52147 0.5 5.54709 0.5H2.01993C1.04555 0.5 0.256348 1.33906 0.256348 2.375V41.75C0.256348 43.8207 1.83586 45.5 3.78351 45.5H54.9274C55.9018 45.5 56.691 44.6609 56.691 43.625V39.875C56.691 38.8391 55.9018 38 54.9274 38Z" fill="#FFFAFA"/>
</svg>
